# xmcd
#
# Track frame offsets:
#	183
#	12093
#	25923
#	39268
#	49858
#	63690
#	76513
#	88913
#	100610
#	114833
#	127253
#
# Disc length: 1887 seconds
#
# Revision: 1
# Processed by: cddbd v1.5.1PL0 Copyright (c) Steve Scherf et al.
# Submitted via: audiograbber 1.83.01
#
DISCID=80075d0b
DTITLE=Don Williams - Visions
DYEAR=1977
DGENRE=
TTITLE0=Time on my Hands
TTITLE1=I'll forgive but I'll never forget
TTITLE2=I'm getting good at missing you
TTITLE3=In the Mornin'
TTITLE4=Missing you, missing me
TTITLE5=Some broken Hearts never ment
TTITLE6=Fallin' in Love again
TTITLE7=We can sing
TTITLE8=I'll need someone to hold me
TTITLE9=Expert at everything
TTITLE10=Cup o' Tea
EXTD=
EXTT0=
EXTT1=
EXTT2=
EXTT3=
EXTT4=
EXTT5=
EXTT6=
EXTT7=
EXTT8=
EXTT9=
EXTT10=
PLAYORDER=
